<svg width="24" height="24" viewBox="0 0 24 24" fill="none" xmlns="http://www.w3.org/2000/svg">
<path fill-rule="evenodd" clip-rule="evenodd" d="M4 0C1.79086 0 0 1.79086 0 4V20C0 22.2091 1.79086 24 4 24H20C22.2091 24 24 22.2091 24 20V4C24 1.79086 22.2091 0 20 0H4ZM15.0002 7.5C14.5031 7.5 14.1002 7.90294 14.1002 8.4C14.1002 8.89706 14.5031 9.3 15.0002 9.3H16.1273L13.3648 13.514C13.2438 13.6986 12.9716 13.6937 12.8573 13.5049L10.5674 9.72202C9.72797 8.3352 7.70043 8.38213 6.92603 9.80632L4.0095 15.1701C3.77206 15.6067 3.93357 16.1532 4.37024 16.3907C4.80692 16.6281 5.3534 16.4666 5.59084 16.0299L8.50738 10.6662C8.61801 10.4627 8.90766 10.456 9.02758 10.6541L11.3174 14.437C12.1175 15.7588 14.023 15.7931 14.8702 14.5009L17.8055 10.0232L18.3952 11.2025C18.6175 11.6471 19.1581 11.8273 19.6027 11.605C20.0472 11.3827 20.2274 10.8421 20.0052 10.3975L19.1368 8.66085C18.7811 7.94941 18.054 7.5 17.2585 7.5H15.0002Z" fill="#2A4BC4"/>
</svg>
