<svg width="22" height="24" viewBox="0 0 22 24" fill="none" xmlns="http://www.w3.org/2000/svg">
<path fill-rule="evenodd" clip-rule="evenodd" d="M5.33336 3.11114C5.33336 4.33844 4.33844 5.33336 3.11114 5.33336C1.88384 5.33336 0.888916 4.33844 0.888916 3.11114C0.888916 1.88384 1.88384 0.888916 3.11114 0.888916C4.33844 0.888916 5.33336 1.88384 5.33336 3.11114ZM0.888949 8.11127H5.33339V23.1113H0.888949V8.11127ZM8.66673 8.11127H13.1112V9.04618C13.8062 8.80051 14.5542 8.66683 15.3334 8.66683C19.0153 8.66683 22.0001 11.6516 22.0001 15.3335V23.1113H17.5556V15.3335C17.5556 14.1062 16.5607 13.1113 15.3334 13.1113C14.1061 13.1113 13.1112 14.1062 13.1112 15.3335V23.1113H8.66673V15.3335V8.11127Z" fill="#555555"/>
</svg>
