<svg width="28" height="28" viewBox="0 0 28 28" fill="none" xmlns="http://www.w3.org/2000/svg">
<path fill-rule="evenodd" clip-rule="evenodd" d="M0.666748 4.16669C0.666748 1.95755 2.45761 0.166687 4.66675 0.166687H23.3334C25.5426 0.166687 27.3334 1.95755 27.3334 4.16669V20.1667C27.3334 22.3758 25.5426 24.1667 23.3334 24.1667H15.0001V25.8334H16.6667C17.219 25.8334 17.6667 26.2811 17.6667 26.8334C17.6667 27.3856 17.219 27.8334 16.6667 27.8334H14.0015H14.0001H13.9987H11.3334C10.7811 27.8334 10.3334 27.3856 10.3334 26.8334C10.3334 26.2811 10.7811 25.8334 11.3334 25.8334H13.0001V24.1667H4.66674C2.4576 24.1667 0.666748 22.3758 0.666748 20.1667V4.16669ZM12.0001 7.83335C11.4478 7.83335 11.0001 8.28107 11.0001 8.83335V9.50002C11.0001 11.5251 9.35846 13.1667 7.33342 13.1667H6.00008C5.4478 13.1667 5.00008 12.719 5.00008 12.1667C5.00008 11.6144 5.4478 11.1667 6.00008 11.1667H7.33342C8.25389 11.1667 9.00008 10.4205 9.00008 9.50002V8.83335C9.00008 7.1765 10.3432 5.83335 12.0001 5.83335C13.6569 5.83335 15.0001 7.1765 15.0001 8.83335V15.5C15.0001 16.0523 15.4478 16.5 16.0001 16.5C16.5524 16.5 17.0001 16.0523 17.0001 15.5V14.8334C17.0001 12.8083 18.6417 11.1667 20.6667 11.1667H22.0001C22.5524 11.1667 23.0001 11.6144 23.0001 12.1667C23.0001 12.719 22.5524 13.1667 22.0001 13.1667H20.6667C19.7463 13.1667 19.0001 13.9129 19.0001 14.8334V15.5C19.0001 17.1569 17.6569 18.5 16.0001 18.5C14.3432 18.5 13.0001 17.1569 13.0001 15.5V8.83335C13.0001 8.28107 12.5524 7.83335 12.0001 7.83335Z" fill="#2A4BC4"/>
</svg>
