<svg width="22" height="24" viewBox="0 0 22 24" fill="none" xmlns="http://www.w3.org/2000/svg">
<path fill-rule="evenodd" clip-rule="evenodd" d="M6.19995 2.4C6.19995 1.07452 7.27447 0 8.59995 0H13.4C14.7254 0 15.7999 1.07452 15.7999 2.4C15.7999 3.72548 14.7254 4.8 13.3999 4.8H8.59995C7.27447 4.8 6.19995 3.72548 6.19995 2.4ZM4.39996 2.40005V2.4001C4.39996 4.7197 6.28036 6.6001 8.59996 6.6001H13.4C15.7196 6.6001 17.6 4.7197 17.6 2.4001V2.40005H17.7999C20.0091 2.40005 21.7999 4.19092 21.7999 6.40005V20C21.7999 22.2092 20.0091 24.0001 17.7999 24.0001H4.19995C1.99082 24.0001 0.199951 22.2092 0.199951 20.0001V6.40006C0.199951 4.19092 1.99081 2.40005 4.19995 2.40005H4.39996ZM6.19995 8.69998C5.7029 8.69998 5.29995 9.10293 5.29995 9.59998C5.29995 10.097 5.7029 10.5 6.19995 10.5H15.8C16.297 10.5 16.7 10.097 16.7 9.59998C16.7 9.10293 16.297 8.69998 15.8 8.69998H6.19995ZM5.29995 14.4C5.29995 13.9029 5.7029 13.5 6.19995 13.5H15.8C16.297 13.5 16.7 13.9029 16.7 14.4C16.7 14.8971 16.297 15.3 15.8 15.3H6.19995C5.7029 15.3 5.29995 14.8971 5.29995 14.4ZM6.19995 18.3C5.7029 18.3 5.29995 18.703 5.29995 19.2C5.29995 19.6971 5.7029 20.1 6.19995 20.1H11C11.497 20.1 11.9 19.6971 11.9 19.2C11.9 18.703 11.497 18.3 11 18.3H6.19995Z" fill="#2A4BC4"/>
</svg>
