<svg width="24" height="24" viewBox="0 0 24 24" fill="none" xmlns="http://www.w3.org/2000/svg">
<path fill-rule="evenodd" clip-rule="evenodd" d="M4.88892 0.888916C2.67978 0.888916 0.888916 2.67978 0.888916 4.88891V19.1111C0.888916 21.3203 2.67978 23.1111 4.88891 23.1111H19.1111C21.3203 23.1111 23.1111 21.3203 23.1111 19.1111V4.88892C23.1111 2.67978 21.3203 0.888916 19.1111 0.888916H4.88892ZM18.6667 6.44461C19.2804 6.44461 19.7778 5.94715 19.7778 5.3335C19.7778 4.71985 19.2804 4.22238 18.6667 4.22238C18.0531 4.22238 17.5556 4.71985 17.5556 5.3335C17.5556 5.94715 18.0531 6.44461 18.6667 6.44461ZM17.5556 12.0002C17.5556 15.0684 15.0683 17.5557 12.0001 17.5557C8.93181 17.5557 6.44451 15.0684 6.44451 12.0002C6.44451 8.93191 8.93181 6.44461 12.0001 6.44461C15.0683 6.44461 17.5556 8.93191 17.5556 12.0002ZM12.0001 15.3335C13.841 15.3335 15.3334 13.8411 15.3334 12.0002C15.3334 10.1592 13.841 8.66683 12.0001 8.66683C10.1591 8.66683 8.66673 10.1592 8.66673 12.0002C8.66673 13.8411 10.1591 15.3335 12.0001 15.3335Z" fill="#555555"/>
</svg>
