<svg width="20" height="20" viewBox="0 0 20 20" fill="none" xmlns="http://www.w3.org/2000/svg">
<path fill-rule="evenodd" clip-rule="evenodd" d="M20 10C20 15.5228 15.5228 20 10 20C8.4724 20 7.0248 19.6575 5.72982 19.045L1.3745 19.7709C0.69951 19.8834 0.113472 19.3 0.222987 18.6245L0.935623 14.229C0.335319 12.9446 0 11.5114 0 10C0 4.47715 4.47715 0 10 0C15.5228 0 20 4.47715 20 10ZM14 12.6749V13.1111C14 13.602 13.602 14 13.1111 14C9.18373 14 5.99997 10.8162 5.99997 6.88889C5.99997 6.39797 6.39794 6 6.88886 6H7.32506C7.8669 6 8.35415 6.32988 8.55538 6.83296L8.74199 7.29949C8.95061 7.82105 8.72462 8.41545 8.2222 8.66667C8.2222 8.66667 8.44442 9.77778 9.33331 10.6667C10.2222 11.5556 11.3333 11.7778 11.3333 11.7778C11.5845 11.2753 12.1789 11.0494 12.7005 11.258L13.167 11.4446C13.6701 11.6458 14 12.1331 14 12.6749Z" fill="#2A4BC4"/>
</svg>
